<?xml version="1.0" encoding="UTF-8" standalone="no"?>
<svg width="250px" height="375px" viewBox="0 0 250 375" version="1.1" xmlns="http://www.w3.org/2000/svg" xmlns:xlink="http://www.w3.org/1999/xlink" xmlns:sketch="http://www.bohemiancoding.com/sketch/ns">
    <!-- Generator: Sketch 3.3.2 (12043) - http://www.bohemiancoding.com/sketch -->
    <title>Lil Numo</title>
    <desc>Created with Sketch.</desc>
    <defs></defs>
    <g id="Page-1" stroke="none" stroke-width="1" fill="none" fill-rule="evenodd" sketch:type="MSPage">
        <g id="Lil-Numo" sketch:type="MSArtboardGroup">
            <g id="Group" sketch:type="MSLayerGroup" transform="translate(8.000000, 16.000000)">
                <path d="M117.391304,308.945455 C182.224731,308.945455 234.782609,260.672727 234.782609,202.745455 C234.782609,144.818182 195.652174,115.854545 195.652174,67.5818182 C195.652174,19.3090909 159.840569,3.41060513e-13 117.391304,3.41060513e-13 C90.0671092,3.41060513e-13 39.1304348,19.3090909 39.1304348,67.5818182 C39.1304348,115.854545 1.02587709e-12,144.818182 1.02318154e-12,202.745455 C1.02587709e-12,260.672727 52.5578772,308.945455 117.391304,308.945455 Z" id="Oval-1" stroke="#36C3AA" stroke-width="9.72" fill="#36C3AA" sketch:type="MSShapeGroup"></path>
                <ellipse id="Oval-2-Copy" fill="#FFFFFF" sketch:type="MSShapeGroup" transform="translate(151.630435, 96.545455) rotate(-10.000000) translate(-151.630435, -96.545455) " cx="151.630435" cy="96.5454545" rx="34.2391304" ry="48.2727273"></ellipse>
                <ellipse id="Oval-2-Copy-2" fill="#FFFFFF" sketch:type="MSShapeGroup" transform="translate(92.934783, 96.545455) scale(-1, 1) rotate(-10.000000) translate(-92.934783, -96.545455) " cx="92.9347826" cy="96.5454545" rx="34.2391304" ry="48.2727273"></ellipse>
                <ellipse id="Oval-2-Copy-4" fill="#000000" sketch:type="MSShapeGroup" transform="translate(143.739130, 101.372727) rotate(-10.000000) translate(-143.739130, -101.372727) " cx="143.73913" cy="101.372727" rx="19.5652174" ry="24.1363636"></ellipse>
                <ellipse id="Oval-2-Copy-3" fill="#000000" sketch:type="MSShapeGroup" transform="translate(104.608696, 101.372727) scale(-1, 1) rotate(-10.000000) translate(-104.608696, -101.372727) " cx="104.608696" cy="101.372727" rx="19.5652174" ry="24.1363636"></ellipse>
                <path d="M200.304538,187.492953 C202.460599,190.776489 203.625665,194.280197 203.625665,197.918182 C203.625665,216.580386 172.966904,231.709091 135.147405,231.709091 C97.3279054,231.709091 66.6691437,216.580386 66.6691437,197.918182 C66.6691437,194.630711 67.6205204,191.452889 69.3948255,188.448099 C77.2916418,202.011758 101.764302,210.618005 135.147405,202.745455 C167.73144,195.061343 191.826493,196.141197 200.304536,187.492951 Z" id="Oval-6" fill="#FFFFFF" sketch:type="MSShapeGroup"></path>
            </g>
            <path d="M207.140955,299.499999 C207.140955,299.499999 220.343479,327.526765 213.741134,336.329244 C207.13879,345.131724 185.947856,341.01461 177.669295,338.792661 C169.390735,336.570713 162.870591,333.865825 161.020753,338.792661 C159.170915,343.719498 155.471239,358.499998 169.345024,358.5 C183.218809,358.500003 216.515894,358.5 222.99033,358.5 C229.464767,358.5 231.314602,352.341458 228.539845,343.719498 C225.765088,335.097538 218.438611,302.773439 218.438611,302.773439 L207.140955,299.499999 Z" id="Path-25-Copy-3" fill="#36C3AA" sketch:type="MSShapeGroup" transform="translate(194.469241, 329.000000) scale(-1, 1) translate(-194.469241, -329.000000) "></path>
            <path d="M70.64723,299.499999 C70.64723,299.499999 83.8497533,327.526765 77.2474092,336.329244 C70.645065,345.131724 49.4541302,341.01461 41.1755698,338.792661 C32.8970094,336.570713 26.3768656,333.865825 24.5270276,338.792661 C22.6771896,343.719498 18.977514,358.499998 32.8512986,358.5 C46.7250833,358.500003 80.0221685,358.5 86.4966052,358.5 C92.9710418,358.5 94.8208763,352.341458 92.0461193,343.719498 C89.2713622,335.097538 81.9448858,302.773439 81.9448858,302.773439 L70.64723,299.499999 Z" id="Path-25-Copy-4" fill="#36C3AA" sketch:type="MSShapeGroup"></path>
        </g>
    </g>
</svg>