<?xml version="1.0" encoding="UTF-8" standalone="no"?>
<svg width="264px" height="102px" viewBox="0 0 264 102" version="1.1" xmlns="http://www.w3.org/2000/svg" xmlns:xlink="http://www.w3.org/1999/xlink" xmlns:sketch="http://www.bohemiancoding.com/sketch/ns">
    <!-- Generator: Sketch 3.3.2 (12043) - http://www.bohemiancoding.com/sketch -->
    <title>Oval 2 + Oval 10 + Oval 2 + omega + Rectangle 11</title>
    <desc>Created with Sketch.</desc>
    <defs>
        <linearGradient x1="50%" y1="20.8775789%" x2="50%" y2="77.1199939%" id="linearGradient-1">
            <stop stop-color="#AD095D" offset="0%"></stop>
            <stop stop-color="#FF8C2E" offset="100%"></stop>
        </linearGradient>
    </defs>
    <g id="Page-1" stroke="none" stroke-width="1" fill="none" fill-rule="evenodd" sketch:type="MSPage">
        <g id="Square-biz-card---Olivia" sketch:type="MSArtboardGroup" transform="translate(-276.000000, -123.000000)">
            <g id="Oval-2-+-Oval-10-+-Oval-2-+-omega-+-Rectangle-11" sketch:type="MSLayerGroup" transform="translate(276.842970, 122.695795)">
                <g id="Oval-2-+-Oval-10-+-Oval-2-+-omega" transform="translate(0.000000, 1.000000)" sketch:type="MSShapeGroup">
                    <g>
                        <g id="Oval-2-+-Oval-10" transform="translate(196.545515, 8.118562)" fill="#36C3AA">
                            <path d="M48.9681249,9.28609666 C43.8124769,3.68884446 36.423914,0.182516559 28.2169304,0.182516559 C12.6345955,0.182516559 0.00261720853,12.8226154 0.00261720853,28.4149676 C0.00261720853,36.6208877 3.50128471,44.0091249 9.08739863,49.1675509 C4.45418407,44.1374809 1.62427988,37.4187727 1.62427988,30.03868 C1.62427988,14.4463279 14.2562582,1.80622899 29.8385931,1.80622899 C37.2202798,1.80622899 43.9398709,4.64281929 48.9681249,9.28609666 Z" id="Path-2"></path>
                            <g id="Group" transform="translate(11.838137, 11.365987)">
                                <polygon id="Polygon-1" points="17.027458 10.0670171 22.7855024 13.3956276 22.7855024 20.0528485 17.027458 23.381459 11.2694136 20.0528485 11.2694136 13.3956276 "></polygon>
                                <path d="M22.8654436,13.4768132 L22.8654436,33.1649607 L21.5090432,20.8891239" id="Path-12" stroke="#36C3AA" stroke-width="0.971895532"></path>
                                <path d="M9.49164868,7.68437548 L9.49164868,27.372523 L8.13524821,15.0966862" id="Path-12-Copy-7" stroke="#36C3AA" stroke-width="0.971895532" transform="translate(8.813448, 17.528449) scale(-1, -1) rotate(-58.000000) translate(-8.813448, -17.528449) "></path>
                                <path d="M14.823357,14.8672101 L14.823357,34.5553576 L13.4669565,22.2795208" id="Path-12-Copy-6" stroke="#36C3AA" stroke-width="0.971895532" transform="translate(14.145157, 24.711284) rotate(59.000000) translate(-14.145157, -24.711284) "></path>
                                <path d="M12.5458729,0.283515413 L12.5458729,19.9716629 L11.1894724,7.69582609" id="Path-12" stroke="#36C3AA" stroke-width="0.971895532" transform="translate(11.867673, 10.127589) scale(-1, -1) translate(-11.867673, -10.127589) "></path>
                                <path d="M25.9196678,6.07595313 L25.9196678,25.7641006 L24.5632674,13.4882638" id="Path-12-Copy-7" stroke="#36C3AA" stroke-width="0.971895532" transform="translate(25.241468, 15.920027) rotate(-58.000000) translate(-25.241468, -15.920027) "></path>
                                <path d="M20.5879595,-1.10688148 L20.5879595,18.581266 L19.231559,6.3054292" id="Path-12-Copy-6" stroke="#36C3AA" stroke-width="0.971895532" transform="translate(19.909759, 8.737192) scale(-1, -1) rotate(59.000000) translate(-19.909759, -8.737192) "></path>
                            </g>
                        </g>
                        <path d="M46.7328755,27.3595545 L53.0601822,27.3595545 L53.0601822,27.3595545 C53.0609173,27.278456 53.0612857,27.1972699 53.0612857,27.1159976 C53.0612857,12.5886215 41.2920864,0.811856216 26.7740432,0.811856216 C18.516151,0.811856216 11.147608,4.62206059 6.32841022,10.5814062 L6.32841022,10.5814062 L6.32841022,27.3595545 C6.32841022,16.1949969 15.3732579,7.1443347 26.5306428,7.1443347 C37.6880278,7.1443347 46.7328755,16.1949969 46.7328755,27.3595545 L46.7328755,27.1159976 L53.0612857,27.1159976 L53.0612857,73.391802 L46.7328755,73.391802 L46.7328755,27.3595545 Z M101.254563,19.3221779 L101.263094,19.3221779 C101.519426,12.0150744 107.520062,6.17010724 114.884986,6.17010724 C122.249909,6.17010724 128.250545,12.0150744 128.506877,19.3221779 L128.511142,19.3221779 L128.511142,19.3221779 L134.829017,19.3221779 C135.08535,12.0150744 141.085985,6.17010724 148.450909,6.17010724 C155.815832,6.17010724 161.816468,12.0150744 162.0728,19.3221779 L168.38641,19.3221665 C167.878667,8.74461858 159.14744,0.324742487 148.450909,0.324742487 C141.410198,0.324742487 135.220972,3.97272495 131.667945,9.4828283 L131.667947,9.48282486 C128.11492,3.97272343 121.925695,0.324742487 114.884986,0.324742487 C108.396446,0.324742487 102.631071,3.42297289 98.9857461,8.22165233 L94.9261533,8.22165233 L94.9261533,73.391802 L94.9206041,73.391802 C94.6619192,84.7348965 85.3916763,93.8505786 73.9937195,93.8505786 C62.5957627,93.8505786 53.3255197,84.7348965 53.0668348,73.391802 L46.7328755,73.391802 C46.7328755,88.4572291 58.9379711,100.670171 73.9937195,100.670171 C87.6915127,100.670171 99.0296926,90.5609706 100.963556,77.391802 L101.254563,77.391802 L101.254563,19.3221779 L101.254563,19.3221779 Z M0,4.22165233 L6.32841022,4.22165233 L6.32841022,71.9304608 L0,71.9304608 L0,4.22165233 Z M162.104662,19.3221779 L168.433072,19.3221779 L168.433072,73.391802 L162.104662,73.391802 L162.104662,19.3221779 Z M128.515408,19.3221779 L134.843818,19.3221779 L134.843818,73.391802 L128.515408,73.391802 L128.515408,19.3221779 Z" id="Oval-2" fill="url(#linearGradient-1)"></path>
                        <path d="M230.249873,80.0660805 L255.630191,80.2113942 C255.630191,80.2113942 255.630191,66.8555535 255.630191,69.860921 C255.630191,72.8662885 252.645994,73.8134297 252.645994,73.8134297 L236.044029,73.8134297 L237.023215,71.4145552 L237.023215,71.4145552 C251.754768,66.5909203 262.38502,52.8396408 262.38502,36.6287131 C262.38502,16.3992335 245.831237,0 225.411111,0 C204.990985,0 188.437202,16.3992335 188.437202,36.6287131 C188.437202,52.8396408 199.067454,66.5909203 213.799007,71.4145552 L214.778193,73.8134297 L198.176228,73.8134297 C198.176228,73.8134297 195.192031,72.8662885 195.192031,69.860921 C195.192031,66.8555535 195.192031,80.2113942 195.192031,80.2113942 L220.572349,80.0660805 L214.851942,65.4887016 C202.942042,61.2112497 194.432971,49.904404 194.432971,36.6287131 C194.432971,19.6796896 208.302357,5.93979131 225.411111,5.93979131 C242.519865,5.93979131 256.389251,19.6796896 256.389251,36.6287131 C256.389251,49.904404 247.88018,61.2112497 235.970279,65.4887016 L230.249873,80.0660805 Z" id="omega" fill="#36C3AA"></path>
                    </g>
                </g>
            </g>
        </g>
    </g>
</svg>