<?xml version="1.0" encoding="UTF-8" standalone="no"?>
<svg width="809px" height="310px" viewBox="0 0 809 310" version="1.1" xmlns="http://www.w3.org/2000/svg" xmlns:xlink="http://www.w3.org/1999/xlink" xmlns:sketch="http://www.bohemiancoding.com/sketch/ns">
    <!-- Generator: Sketch 3.3.2 (12043) - http://www.bohemiancoding.com/sketch -->
    <title>Oval 2 + Oval 10 + Oval 2 + omega + Rectangle 11 Copy</title>
    <desc>Created with Sketch.</desc>
    <defs></defs>
    <g id="Page-1" stroke="none" stroke-width="1" fill="none" fill-rule="evenodd" sketch:type="MSPage">
        <g id="iTunesArtwork@2x" sketch:type="MSArtboardGroup" transform="translate(-108.000000, -714.000000)" fill="#000000">
            <g id="Oval-2-+-Oval-10-+-Oval-2-+-omega-+-Rectangle-11-Copy" sketch:type="MSLayerGroup" transform="translate(108.000000, 714.000000)">
                <g id="Oval-2-+-Oval-10-+-Oval-2-+-omega" sketch:type="MSShapeGroup">
                    <g id="Oval-2-+-Oval-10-+-Oval-2-+-omega-Copy">
                        <g id="Oval-2-+-Oval-10-+-omega" transform="translate(581.000000, 0.000000)">
                            <g id="Oval-2-+-Oval-10" transform="translate(25.000000, 25.000000)">
                                <path d="M150.98123,28.5952625 C135.085051,11.3592912 112.304225,0.562034739 87,0.562034739 C38.9556834,0.562034739 0.00806952204,39.4854876 0.00806952204,87.5 C0.00806952204,112.769007 10.7953546,135.520071 28.0187699,151.404737 C13.7333866,135.915326 5.00806952,115.225984 5.00806952,92.5 C5.00806952,44.4854876 43.9556834,5.56203474 92,5.56203474 C114.759624,5.56203474 135.477839,14.296926 150.98123,28.5952625 Z" id="Path-2"></path>
                                <g id="Group" transform="translate(36.500000, 35.000000)">
                                    <polygon id="Polygon-1" points="52.5 31 70.2535208 41.25 70.2535208 61.75 52.5 72 34.7464792 61.75 34.7464792 41.25 "></polygon>
                                    <path d="M70.5,41.5 L70.5,102.126953 L66.3178711,64.3251953" id="Path-12" stroke="#000000"></path>
                                    <path d="M29.265176,23.6629816 L29.265176,84.2899347 L25.0830471,46.4881769" id="Path-12-Copy-7" stroke="#000000" transform="translate(27.174112, 53.976458) scale(-1, -1) rotate(-58.000000) translate(-27.174112, -53.976458) "></path>
                                    <path d="M45.7041939,45.7815368 L45.7041939,106.40849 L41.522065,68.6067321" id="Path-12-Copy-6" stroke="#000000" transform="translate(43.613129, 76.095013) rotate(59.000000) translate(-43.613129, -76.095013) "></path>
                                    <path d="M38.6821289,0.873046875 L38.6821289,61.5 L34.5,23.6982422" id="Path-12" stroke="#000000" transform="translate(36.591064, 31.186523) scale(-1, -1) translate(-36.591064, -31.186523) "></path>
                                    <path d="M79.9169529,18.7100653 L79.9169529,79.3370184 L75.734824,41.5352606" id="Path-12-Copy-7" stroke="#000000" transform="translate(77.825888, 49.023542) rotate(-58.000000) translate(-77.825888, -49.023542) "></path>
                                    <path d="M63.477935,-3.40848988 L63.477935,57.2184632 L59.2958061,19.4167054" id="Path-12-Copy-6" stroke="#000000" transform="translate(61.386871, 26.904987) scale(-1, -1) rotate(59.000000) translate(-61.386871, -26.904987) "></path>
                                </g>
                            </g>
                            <path d="M128.919138,246.552526 L207.173139,247 C207.173139,247 207.173139,205.872518 207.173139,215.127136 C207.173139,224.381753 197.972098,227.298345 197.972098,227.298345 L146.784,227.298345 L149.803081,219.91134 L149.803081,219.91134 C195.224219,205.057616 228,162.712435 228,112.793104 C228,50.4991928 176.960461,0 114,0 C51.0395385,0 0,50.4991928 0,112.793104 C0,162.712435 32.7757813,205.057616 78.1969188,219.91134 L81.216,227.298345 L30.0279019,227.298345 C30.0279019,227.298345 20.8268607,224.381753 20.826861,215.127136 C20.8268613,205.872518 20.826861,247 20.826861,247 L99.0808618,246.552526 L81.4433878,201.663485 C44.7221231,188.491658 18.4864865,153.673775 18.4864865,112.793104 C18.4864865,60.6009082 61.2493431,18.2907736 114,18.2907736 C166.750657,18.2907736 209.513514,60.6009082 209.513514,112.793104 C209.513514,153.673775 183.277877,188.491658 146.556612,201.663485 L128.919138,246.552526 Z" id="omega"></path>
                        </g>
                        <path d="M163.60149,83.5 C163.60149,38.7649353 127.314044,2.5 82.5512104,2.5 C57.0900207,2.5 34.3709215,14.2330024 19.5121043,32.5839909 L19.5121043,32.5839909 L19.5121043,84.25 C19.5121043,49.8702743 47.3996786,22 81.8007449,22 C116.201811,22 144.089385,49.8702743 144.089385,84.25 L144.089385,226 L163.60149,226 L163.60149,83.5 Z M312.193669,59.5 L312.219971,59.5 C313.010314,36.9987708 331.511803,19 354.219739,19 C376.927676,19 395.429165,36.9987708 396.219507,59.4999909 L396.245809,59.4999909 L396.245808,59.5 L415.712281,59.4999909 C416.502624,36.9987708 435.004113,19 457.712049,19 C480.419986,19 498.921475,36.9987708 499.711817,59.5 L519.178288,59.4999647 C517.612789,26.927855 490.692186,1 457.712049,1 C436.003741,1 416.920777,12.2334622 405.965887,29.2010707 L405.965894,29.2010601 C395.011003,12.2334576 375.928043,1 354.219739,1 C337.970976,1 323.193084,7.29364618 312.193669,17.5747664 L312.193669,13 L292.681564,13 L292.681564,226 L312.193669,226 L312.193669,59.5 L312.193669,59.5 Z M312.193669,226 C312.193669,272.391919 274.562243,310 228.141527,310 C181.720811,310 144.089385,272.391919 144.089385,226 L163.618599,226 C164.416191,260.929506 192.998716,289 228.141527,289 C263.284338,289 291.866863,260.929506 292.664455,226 L312.193669,226 Z M0,13 L19.5121043,13 L19.5121043,221.5 L0,221.5 L0,13 Z M499.810056,59.5 L519.32216,59.5 L519.32216,226 L499.810056,226 L499.810056,59.5 Z M396.24581,59.5 L415.757914,59.5 L415.757914,226 L396.24581,226 L396.24581,59.5 Z" id="Oval-2"></path>
                    </g>
                </g>
            </g>
        </g>
    </g>
</svg>